<svg xmlns="http://www.w3.org/2000/svg" xmlns:xlink="http://www.w3.org/1999/xlink" width="500" zoomAndPan="magnify" viewBox="0 0 375 374.999991" height="500" preserveAspectRatio="xMidYMid meet" version="1.0"><defs><clipPath id="59689661f5"><path d="M 85 0.921875 L 364.480469 0.921875 L 364.480469 281 L 85 281 Z M 85 0.921875 " clip-rule="nonzero"/></clipPath><clipPath id="5237ad39b1"><path d="M 0.160156 0.921875 L 266 0.921875 L 266 267 L 0.160156 267 Z M 0.160156 0.921875 " clip-rule="nonzero"/></clipPath><clipPath id="7b44111aa1"><path d="M 0.160156 86 L 280 86 L 280 365.480469 L 0.160156 365.480469 Z M 0.160156 86 " clip-rule="nonzero"/></clipPath><clipPath id="eb5400ce39"><path d="M 93 167 L 362 167 L 362 365.480469 L 93 365.480469 Z M 93 167 " clip-rule="nonzero"/></clipPath><clipPath id="634b9181d3"><path d="M 52 33 L 364.480469 33 L 364.480469 348 L 52 348 Z M 52 33 " clip-rule="nonzero"/></clipPath><clipPath id="41392b00c4"><path d="M 95 0.921875 L 364.480469 0.921875 L 364.480469 306 L 95 306 Z M 95 0.921875 " clip-rule="nonzero"/></clipPath><clipPath id="eacd3b86c1"><path d="M 229 94 L 364.480469 94 L 364.480469 300 L 229 300 Z M 229 94 " clip-rule="nonzero"/></clipPath><clipPath id="77f5f15aea"><path d="M 0.160156 0.921875 L 278 0.921875 L 278 273 L 0.160156 273 Z M 0.160156 0.921875 " clip-rule="nonzero"/></clipPath><clipPath id="ef7f6b0a81"><path d="M 0.160156 86 L 278 86 L 278 365 L 0.160156 365 Z M 0.160156 86 " clip-rule="nonzero"/></clipPath><clipPath id="1c7b9c2395"><rect x="0" width="365" y="0" height="366"/></clipPath></defs><rect x="-37.5" width="450" fill="#ffffff" y="-37.499999" height="449.999989" fill-opacity="1"/><rect x="-37.5" width="450" fill="#ffffff" y="-37.499999" height="449.999989" fill-opacity="1"/><g transform="matrix(1, 0, 0, 1, 8, 7)"><g clip-path="url(#1c7b9c2395)"><g clip-path="url(#59689661f5)"><path stroke-linecap="butt" transform="matrix(-0.43659, -0.43659, 0.43659, -0.43659, 341.985518, 198.195239)" fill="none" stroke-linejoin="miter" d="M 0.00122557 12.497813 L 400.208463 12.497813 " stroke="#edc546" stroke-width="25" stroke-opacity="1" stroke-miterlimit="4"/></g><g clip-path="url(#5237ad39b1)"><path stroke-linecap="butt" transform="matrix(0.43659, -0.43659, 0.43659, 0.43659, 6.094612, 173.718903)" fill="none" stroke-linejoin="miter" d="M -0.000811564 12.498044 L 381.645507 12.502517 " stroke="#edc546" stroke-width="25" stroke-opacity="1" stroke-miterlimit="4"/></g><g clip-path="url(#7b44111aa1)"><path stroke-linecap="butt" transform="matrix(-0.43659, -0.43659, 0.43659, -0.43659, 186.276769, 353.903989)" fill="none" stroke-linejoin="miter" d="M 0.00122557 12.50175 L 400.208463 12.50175 " stroke="#edc546" stroke-width="25" stroke-opacity="1" stroke-miterlimit="4"/></g><g clip-path="url(#eb5400ce39)"><path stroke-linecap="butt" transform="matrix(0.43659, -0.43659, 0.43659, 0.43659, 175.318127, 342.854675)" fill="none" stroke-linejoin="miter" d="M 0.00159453 12.502618 L 213.329141 12.502618 " stroke="#edc546" stroke-width="25" stroke-opacity="1" stroke-miterlimit="4"/></g><g clip-path="url(#634b9181d3)"><path stroke-linecap="butt" transform="matrix(-0.438124, -0.435051, 0.435051, -0.438124, 274.464136, 265.65838)" fill="none" stroke-linejoin="miter" d="M -0.0020961 12.498053 L 319.633298 12.500171 " stroke="#edc546" stroke-width="25" stroke-opacity="1" stroke-miterlimit="4"/></g><g clip-path="url(#41392b00c4)"><path stroke-linecap="butt" transform="matrix(-0.43659, -0.43659, 0.43659, -0.43659, 316.650959, 223.530341)" fill="none" stroke-linejoin="miter" d="M -0.00262684 12.499751 L 319.742646 12.499751 " stroke="#edc546" stroke-width="25" stroke-opacity="1" stroke-miterlimit="4"/></g><g clip-path="url(#eacd3b86c1)"><path stroke-linecap="butt" transform="matrix(0.43659, -0.43659, 0.43659, 0.43659, 311.104476, 207.063301)" fill="none" stroke-linejoin="miter" d="M 0.00205496 12.499427 L 70.532653 12.499427 " stroke="#edc546" stroke-width="25" stroke-opacity="1" stroke-miterlimit="4"/></g><g clip-path="url(#77f5f15aea)"><path stroke-linecap="butt" transform="matrix(-0.43659, 0.43659, -0.43659, -0.43659, 195.824928, 86.998168)" fill="none" stroke-linejoin="miter" d="M -0.00156361 12.502395 L 236.34707 12.502395 " stroke="#edc546" stroke-width="25" stroke-opacity="1" stroke-miterlimit="4"/></g><g clip-path="url(#ef7f6b0a81)"><path stroke-linecap="butt" transform="matrix(0.43659, 0.43659, -0.43659, 0.43659, 92.639546, 168.355964)" fill="none" stroke-linejoin="miter" d="M 0.000668102 12.497402 L 236.349289 12.497402 " stroke="#edc546" stroke-width="25" stroke-opacity="1" stroke-miterlimit="4"/></g><path stroke-linecap="butt" transform="matrix(-0.43659, 0.43659, -0.43659, -0.43659, 223.359315, 244.004533)" fill="none" stroke-linejoin="miter" d="M -0.000786733 12.499856 L 88.075226 12.499856 " stroke="#edc546" stroke-width="25" stroke-opacity="1" stroke-miterlimit="4"/><path stroke-linecap="butt" transform="matrix(0.43659, 0.43659, -0.43659, 0.43659, 168.86675, 189.50567)" fill="none" stroke-linejoin="miter" d="M 0.00295474 12.501159 L 124.829498 12.496685 " stroke="#edc546" stroke-width="25" stroke-opacity="1" stroke-miterlimit="4"/></g></g></svg>