<svg xmlns="http://www.w3.org/2000/svg" xmlns:xlink="http://www.w3.org/1999/xlink" width="500" zoomAndPan="magnify" viewBox="0 0 375 374.999991" height="500" preserveAspectRatio="xMidYMid meet" version="1.2"><g id="deaa28b585"><path style="fill:none;stroke-width:25;stroke-linecap:butt;stroke-linejoin:miter;stroke:#edc546;stroke-opacity:1;stroke-miterlimit:4;" d="M -0.00323042 12.499701 L 400.210232 12.499701 " transform="matrix(-0.436369,-0.436369,0.436369,-0.436369,349.985518,205.195256)"/><path style="fill:none;stroke-width:25;stroke-linecap:butt;stroke-linejoin:miter;stroke:#edc546;stroke-opacity:1;stroke-miterlimit:4;" d="M -0.000812663 12.498042 L 381.645485 12.502516 " transform="matrix(0.43659,-0.43659,0.43659,0.43659,14.094613,180.718903)"/><path style="fill:none;stroke-width:25;stroke-linecap:butt;stroke-linejoin:miter;stroke:#edc546;stroke-opacity:1;stroke-miterlimit:4;" d="M 0.00126194 12.49918 L 400.205773 12.49918 " transform="matrix(-0.436369,-0.436369,0.436369,-0.436369,194.276769,360.90402)"/><path style="fill:none;stroke-width:25;stroke-linecap:butt;stroke-linejoin:miter;stroke:#edc546;stroke-opacity:1;stroke-miterlimit:4;" d="M -0.00290001 12.499457 L 213.330642 12.499457 " transform="matrix(0.435919,-0.435919,0.435919,0.435919,183.318141,349.854675)"/><path style="fill:none;stroke-width:25;stroke-linecap:butt;stroke-linejoin:miter;stroke:#edc546;stroke-opacity:1;stroke-miterlimit:4;" d="M -0.00206369 12.498018 L 319.633295 12.500155 " transform="matrix(-0.438124,-0.435051,0.435051,-0.438124,282.464165,272.65838)"/><path style="fill:none;stroke-width:25;stroke-linecap:butt;stroke-linejoin:miter;stroke:#edc546;stroke-opacity:1;stroke-miterlimit:4;" d="M -0.00256088 12.49975 L 319.742694 12.49975 " transform="matrix(-0.43659,-0.43659,0.43659,-0.43659,324.650988,230.53037)"/><path style="fill:none;stroke-width:25;stroke-linecap:butt;stroke-linejoin:miter;stroke:#edc546;stroke-opacity:1;stroke-miterlimit:4;" d="M 0.00205496 12.499426 L 70.532649 12.499426 " transform="matrix(0.43659,-0.43659,0.43659,0.43659,319.104476,214.063301)"/><path style="fill:none;stroke-width:25;stroke-linecap:butt;stroke-linejoin:miter;stroke:#edc546;stroke-opacity:1;stroke-miterlimit:4;" d="M -0.00154937 12.5027 L 236.346345 12.49822 " transform="matrix(-0.435955,0.435955,-0.435955,-0.435955,203.824942,93.998168)"/><path style="fill:none;stroke-width:25;stroke-linecap:butt;stroke-linejoin:miter;stroke:#edc546;stroke-opacity:1;stroke-miterlimit:4;" d="M 0.00065256 12.497668 L 236.348547 12.502148 " transform="matrix(0.435955,0.435955,-0.435955,0.435955,100.639546,175.355979)"/><path style="fill:none;stroke-width:25;stroke-linecap:butt;stroke-linejoin:miter;stroke:#edc546;stroke-opacity:1;stroke-miterlimit:4;" d="M -0.000770789 12.499795 L 88.075113 12.499795 " transform="matrix(-0.43628,0.43628,-0.43628,-0.43628,231.359329,251.004533)"/><path style="fill:none;stroke-width:25;stroke-linecap:butt;stroke-linejoin:miter;stroke:#edc546;stroke-opacity:1;stroke-miterlimit:4;" d="M 0.00293824 12.501141 L 124.829475 12.496668 " transform="matrix(0.43659,0.43659,-0.43659,0.43659,176.86675,196.505685)"/></g></svg>